<?xml version="1.0"?><svg id="Capa_2" xmlns="http://www.w3.org/2000/svg" viewBox="0 0 1485.3 521.69"><defs></defs><g id="Capa_1-2" fill="#191413"><path class="cls-1" d="M322.85,239.68c-23.26-14.52-52.47-29.41-87.61-44.64-21.33-9.34-36.11-16.4-44.34-21.18-8.23-4.77-12.34-11.73-12.34-20.87,0-10.16,4.27-17.87,12.8-23.16,8.53-5.28,20.21-7.92,35.04-7.92s32.2,2.64,50.28,7.92c18.08,5.29,35.14,12.39,51.2,21.33l53.02-107.88c-13.61-8.53-29.46-16.05-47.54-22.55-18.08-6.5-36.72-11.58-55.92-15.24-19.2-3.66-37.33-5.49-54.4-5.49-26.62,0-50.74,4.37-72.37,13.1-21.64,8.74-40.18,20.52-55.61,35.35-15.44,14.83-27.33,31.54-35.65,50.13-8.33,18.59-12.49,37.84-12.49,57.75,0,28.64,8.53,53.74,25.6,75.27,17.07,21.54,40.02,39.21,68.87,53.02,25.39,11.99,45.66,21.89,60.8,29.71,15.13,7.82,26.05,15.34,32.76,22.55,6.7,7.21,10.06,15.9,10.06,26.06,0,22.96-15.65,34.43-46.93,34.43-14.63,0-29.82-2.29-45.56-6.86-15.75-4.57-31.03-10.46-45.86-17.67-14.83-7.21-28.24-14.88-40.23-23.01L0,463.8c11.38,9.14,26.76,18.18,46.17,27.12,19.4,8.94,41.7,16.3,66.89,22.09,25.19,5.79,52.21,8.68,81.06,8.68,40.63,0,75.77-6.4,105.44-19.2,29.66-12.8,52.57-31.28,68.72-55.46,16.15-24.17,24.23-53.12,24.23-86.85,0-28.24-5.79-51.75-17.37-70.55-11.58-18.79-29-35.45-52.26-49.98l-.03.03Z"></path><path class="cls-1" d="M999.17,5.84l-204.78,502.81h144.45l30.17-83.5h184.67l30.17,83.5h144.45L1123.52,5.84h-124.35ZM1014.71,307.53l46.62-119.46,46.62,119.46h-93.25,0Z"></path><rect class="cls-1" x="1351.22" y="5.84" width="134.08" height="502.81"></rect><polygon class="cls-1" points="673.93 242.93 868.96 5.84 706.23 5.84 549.6 201.48 549.6 5.84 415.52 5.84 415.52 508.66 549.6 508.66 549.6 306.92 717.81 508.66 755.2 508.66 802.62 392.25 673.93 242.93"></polygon><path class="cls-1" d="M322.85,239.68c-23.26-14.52-52.47-29.41-87.61-44.64-21.33-9.34-36.11-16.4-44.34-21.18-8.23-4.77-12.34-11.73-12.34-20.87,0-10.16,4.27-17.87,12.8-23.16,8.53-5.28,20.21-7.92,35.04-7.92s32.2,2.64,50.28,7.92c18.08,5.29,35.14,12.39,51.2,21.33l53.02-107.88c-13.61-8.53-29.46-16.05-47.54-22.55-18.08-6.5-36.72-11.58-55.92-15.24-19.2-3.66-37.33-5.49-54.4-5.49-26.62,0-50.74,4.37-72.37,13.1-21.64,8.74-40.18,20.52-55.61,35.35-15.44,14.83-27.33,31.54-35.65,50.13-8.33,18.59-12.49,37.84-12.49,57.75,0,28.64,8.53,53.74,25.6,75.27,17.07,21.54,40.02,39.21,68.87,53.02,25.39,11.99,45.66,21.89,60.8,29.71,15.13,7.82,26.05,15.34,32.76,22.55,6.7,7.21,10.06,15.9,10.06,26.06,0,22.96-15.65,34.43-46.93,34.43-14.63,0-29.82-2.29-45.56-6.86-15.75-4.57-31.03-10.46-45.86-17.67-14.83-7.21-28.24-14.88-40.23-23.01L0,463.8c11.38,9.14,26.76,18.18,46.17,27.12,19.4,8.94,41.7,16.3,66.89,22.09,25.19,5.79,52.21,8.68,81.06,8.68,40.63,0,75.77-6.4,105.44-19.2,29.66-12.8,52.57-31.28,68.72-55.46,16.15-24.17,24.23-53.12,24.23-86.85,0-28.24-5.79-51.75-17.37-70.55-11.58-18.79-29-35.45-52.26-49.98l-.03.03Z"></path><path class="cls-1" d="M999.17,5.84l-204.78,502.81h144.45l30.17-83.5h184.67l30.17,83.5h144.45L1123.52,5.84h-124.35ZM1014.71,307.53l46.62-119.46,46.62,119.46h-93.25,0Z"></path><rect class="cls-1" x="1351.22" y="5.84" width="134.08" height="502.81"></rect><polygon class="cls-1" points="673.93 242.93 868.96 5.84 706.23 5.84 549.6 201.48 549.6 5.84 415.52 5.84 415.52 508.66 549.6 508.66 549.6 306.92 717.81 508.66 755.2 508.66 802.62 392.25 673.93 242.93"></polygon></g></svg>